:SAMPLES-PER-SECOND 30
:FRAME-RANGE 1-3358
:FULLY-SPECIFIED
:DEGREES
3044
root  -26.5781 38.0275 -114.468 176.092 -60.2764 -171.81
RightUpLeg  -23.0657 3.74555 -4.2887
RightLeg  22.4522 -0.706433 -0.543848
RightFoot  -4.35185 -0.930604 14.6755
RightToes  -1.11029e-010 1.2921e-014 -6.02303e-014
Spine  -3.51116 -1.85715 9.6707
Spine1  7.39825 -1.6517 -1.1265
HEad  -5.99865 62.0176 -32.5187
LeftShoulder1  0.495667 1.68852 -24.6991
LeftArm  19.7472 -0.822197 -54.3612
LeftForeArm  26.1635 -10.9592 -11.9255
LeftHand  -0.00866566 5.66697 6.34433
RightShoulder  0.989963 0.685428 18.1929
RightArm  -28.4123 -0.175626 25.7037
RightForeArm  43.9139 -5.832 1.74698
RightHand  0.607337 -8.94988 -20.158
LeftUpLeg  -12.7264 -7.33698 2.43758
LeftLeg  60.611 -1.6035 -2.50407
LeftFoot  -7.06867 0.181643 -3.73205
LeftToes  -1.90334e-010 -8.83595e-011 4.99953e-011
3045
root  -26.7358 38.3181 -114.995 176.739 -63.5858 -172.267
RightUpLeg  -21.3142 -0.215716 -4.03983
RightLeg  20.9197 -0.247609 -0.43223
RightFoot  -4.44394 -0.891107 14.214
RightToes  -1.11029e-010 1.2921e-014 -6.02303e-014
Spine  -2.82451 -1.34695 10.2132
Spine1  6.97853 -0.945887 -1.7914
HEad  -3.90317 61.0045 -29.6289
LeftShoulder1  0.456296 1.79265 -24.1834
LeftArm  21.8054 0.110814 -52.4152
LeftForeArm  24.4975 -11.5095 -11.8259
LeftHand  -0.0116499 5.62225 6.18743
RightShoulder  1.16559 1.59294 17.149
RightArm  -27.2959 5.40068 26.2359
RightForeArm  45.3941 -5.03107 2.74902
RightHand  0.508869 -8.00814 -22.7942
LeftUpLeg  -16.7442 -4.7014 1.82676
LeftLeg  61.8841 -0.816075 -1.05285
LeftFoot  -7.10899 0.166613 -3.35428
LeftToes  -1.90334e-010 -8.83595e-011 4.99953e-011
3046
root  -26.9075 38.5531 -115.497 177.126 -66.349 -172.36
RightUpLeg  -19.9194 -4.28773 -3.58583
RightLeg  19.5755 0.758664 0.0593699
RightFoot  -4.03551 -0.846437 12.7763
RightToes  -1.11029e-010 1.2921e-014 -6.02303e-014
Spine  -2.46629 -0.581527 11.3718
Spine1  6.93977 0.0634335 -2.95573
HEad  -3.26907 60.4898 -29.0455
LeftShoulder1  0.312279 2.24831 -23.5381
LeftArm  22.5734 0.670898 -50.813
LeftForeArm  23.6704 -11.9741 -11.6029
LeftHand  -0.00992441 5.65275 6.18331
RightShoulder  1.23752 2.13542 16.0251
RightArm  -25.6356 11.1338 25.9894
RightForeArm  48.0207 -1.44209 4.41869
RightHand  0.511751 -7.77594 -24.9304
LeftUpLeg  -19.9032 -1.40132 1.08695
LeftLeg  60.6802 -0.54667 -0.472195
LeftFoot  -6.69822 0.18324 -3.52809
LeftToes  -1.90334e-010 -8.83595e-011 4.99953e-011
3047
root  -27.0892 38.7319 -116.003 176.782 -69.6099 -171.76
RightUpLeg  -18.6508 -6.31052 -3.30852
RightLeg  18.8169 -0.733161 -0.151284
RightFoot  -4.11371 -0.763079 11.5997
RightToes  -1.11029e-010 1.2921e-014 -6.02303e-014
Spine  -2.21059 -0.156067 12.1849
Spine1  6.91677 0.582049 -3.61139
HEad  -3.01835 60.7576 -28.9513
LeftShoulder1  0.168697 2.73351 -23.5293
LeftArm  20.6217 1.72895 -48.9125
LeftForeArm  24.3056 -12.6275 -10.9782
LeftHand  -0.00357148 5.76065 6.43448
RightShoulder  1.32035 2.74317 15.0434
RightArm  -25.0363 15.6987 25.6862
RightForeArm  49.4878 3.40195 5.65093
RightHand  0.551122 -7.94004 -25.0825
LeftUpLeg  -22.4007 1.54675 0.417177
LeftLeg  57.9185 -0.721222 -0.706935
LeftFoot  -7.5672 0.157242 -3.39421
LeftToes  -1.90334e-010 -8.83595e-011 4.99953e-011
3048
root  -27.3336 38.87 -116.46 175.649 -73.7301 -170.719
RightUpLeg  -16.9549 -7.87797 -3.48026
RightLeg  18.5011 -3.18233 -0.550821
RightFoot  -4.76183 -0.6605 10.8938
RightToes  -1.11029e-010 1.2921e-014 -6.02303e-014
Spine  -2.10293 -0.0044275 12.7307
Spine1  6.91552 0.738977 -3.86542
HEad  -1.23948 60.8411 -27.4717
LeftShoulder1  0.164372 2.75124 -23.7049
LeftArm  18.1109 2.74489 -47.0883
LeftForeArm  25.0609 -12.3918 -10.8945
LeftHand  -0.018323 5.44598 7.2603
RightShoulder  1.34592 3.10859 14.1245
RightArm  -25.2676 19.7771 25.4643
RightForeArm  48.8227 6.54496 6.23092
RightHand  0.662587 -8.35348 -25.8248
LeftUpLeg  -23.8816 3.22006 -0.500389
LeftLeg  54.0461 -0.900477 -0.852363
LeftFoot  -9.02636 0.137108 -4.10674
LeftToes  -1.90334e-010 -8.83595e-011 4.99953e-011
3049
root  -27.6174 39.0108 -116.874 173.996 -78.2723 -169.198
RightUpLeg  -14.9082 -9.10155 -3.98786
RightLeg  17.8582 -6.33019 -0.948373
RightFoot  -5.553 -0.591375 10.9161
RightToes  -1.11029e-010 1.2921e-014 -6.02303e-014
Spine  -2.24648 0.107926 12.9291
Spine1  6.92646 0.809264 -4.0119
HEad  1.04938 61.553 -25.4343
LeftShoulder1  0.114302 2.91775 -23.5595
LeftArm  14.3783 3.1615 -46.2754
LeftForeArm  27.036 -10.7246 -11.5105
LeftHand  -0.017524 5.44938 7.63607
RightShoulder  1.32772 3.25006 13.321
RightArm  -26.1465 22.5116 25.9655
RightForeArm  46.5751 9.22706 6.09717
RightHand  0.352434 -6.96269 -26.0424
LeftUpLeg  -24.7116 3.80323 -1.60919
LeftLeg  49.304 -0.29297 0.0708487
LeftFoot  -9.4974 0.125914 -4.28571
LeftToes  -1.90334e-010 -8.83595e-011 4.99953e-011
